# xmcd
#
# Track frame offsets:
#	150
#	16972
#	27967
#	42097
#	55467
#	65795
#	80832
#	98490
#	111572
#	124035
#	137877
#	150110
#
# Disc length: 2233 seconds
#
# Revision: 1
# Processed by: cddbd v1.5PL3 Copyright (c) Steve Scherf et al.
# Submitted via: audiograbber 1.83.01
#
DISCID=9e08b70c
DTITLE=Los Originales De San Juan - La Motosierra
DYEAR=1900
DGENRE=Latin
TTITLE0=Vendo Herramienta
TTITLE1=La Motosierra
TTITLE2=El Aguacatero Michoacano
TTITLE3=Que Vuelva Pronto
TTITLE4=Mi Mejor Amigo
TTITLE5=Soy De Oaxaca
TTITLE6=El Pocho
TTITLE7=La Boda Sin Novia
TTITLE8=Fracasado En Amores
TTITLE9=El Parrandero
TTITLE10=La Fuga Del Chapo
TTITLE11=Los Hijos De Don Eduardo
EXTD=
EXTT0=
EXTT1=
EXTT2=
EXTT3=
EXTT4=
EXTT5=
EXTT6=
EXTT7=
EXTT8=
EXTT9=
EXTT10=
EXTT11=
PLAYORDER=
